<svg width="1591" height="278" viewBox="0 0 1591 278" fill="none" xmlns="http://www.w3.org/2000/svg">
<rect x="65.6082" y="211" width="44.3299" height="57" rx="7" fill="black"/>
<path d="M37.3301 74C41.196 74.0001 44.3301 77.1341 44.3301 81V155H131.217V81C131.217 77.134 134.351 74 138.217 74H168.546C172.412 74 175.547 77.134 175.547 81V261C175.547 264.866 172.413 268 168.547 268H138.217C134.351 268 131.217 264.866 131.217 261V187H44.3301V261C44.3301 264.866 41.196 268 37.3301 268H7C3.13401 268 1.6107e-08 264.866 0 261V81C0 77.134 3.13401 74 7 74H37.3301Z" fill="black"/>
<path d="M168.546 0C172.412 0 175.547 3.13401 175.547 7V43C175.547 46.8658 172.413 49.9997 168.547 50H109.938V124C109.938 127.866 106.804 131 102.938 131H72.6084C68.7424 131 65.6084 127.866 65.6084 124V50H7C3.13401 50 1.6107e-08 46.866 0 43V7C0 3.13401 3.13401 0 7 0H168.546Z" fill="black"/>
<path d="M297.252 262V92.4805H231.61V74.08H382.077V92.4805H316.435V262H297.252ZM390.004 262V121.06H407.23V154.99L403.837 150.553C405.403 146.377 407.448 142.549 409.971 139.069C412.494 135.502 415.234 132.587 418.192 130.325C421.846 127.106 426.109 124.67 430.981 123.017C435.853 121.277 440.769 120.277 445.728 120.016C450.687 119.668 455.211 120.016 459.3 121.06V139.069C454.167 137.764 448.555 137.459 442.465 138.155C436.375 138.851 430.764 141.287 425.631 145.463C420.933 149.117 417.409 153.511 415.06 158.644C412.711 163.69 411.145 169.084 410.362 174.826C409.579 180.481 409.188 186.092 409.188 191.66V262H390.004ZM519.028 265.915C508.414 265.915 499.497 264.001 492.276 260.173C485.142 256.345 479.791 251.255 476.224 244.904C472.657 238.553 470.874 231.637 470.874 224.155C470.874 216.499 472.396 209.974 475.441 204.58C478.573 199.099 482.793 194.618 488.1 191.138C493.494 187.658 499.714 185.005 506.761 183.178C513.895 181.438 521.769 179.915 530.382 178.61C539.082 177.218 547.564 176.044 555.829 175.087C564.181 174.043 571.489 173.042 577.753 172.085L570.967 176.261C571.228 162.341 568.531 152.032 562.876 145.333C557.221 138.634 547.39 135.284 533.383 135.284C523.726 135.284 515.548 137.459 508.849 141.809C502.237 146.159 497.583 153.032 494.886 162.428L476.224 156.947C479.443 144.332 485.925 134.545 495.669 127.585C505.413 120.625 518.071 117.145 533.644 117.145C546.52 117.145 557.439 119.581 566.4 124.453C575.448 129.238 581.842 136.198 585.583 145.333C587.323 149.422 588.454 153.989 588.976 159.035C589.498 164.081 589.759 169.214 589.759 174.434V262H572.664V226.634L577.623 228.722C572.838 240.815 565.399 250.037 555.307 256.388C545.215 262.74 533.122 265.915 519.028 265.915ZM521.247 249.341C530.208 249.341 538.038 247.732 544.737 244.513C551.436 241.294 556.83 236.9 560.919 231.332C565.008 225.677 567.661 219.326 568.879 212.279C569.923 207.755 570.489 202.796 570.576 197.402C570.663 191.921 570.706 187.832 570.706 185.135L578.014 188.92C571.489 189.79 564.399 190.66 556.743 191.53C549.174 192.4 541.692 193.4 534.297 194.531C526.989 195.662 520.377 197.011 514.461 198.577C510.459 199.708 506.587 201.317 502.846 203.405C499.105 205.406 496.017 208.103 493.581 211.496C491.232 214.889 490.057 219.109 490.057 224.155C490.057 228.244 491.058 232.202 493.059 236.03C495.147 239.858 498.453 243.034 502.977 245.557C507.588 248.08 513.678 249.341 521.247 249.341ZM678.411 265.915C665.274 265.915 654.051 262.653 644.742 256.127C635.433 249.515 628.299 240.598 623.34 229.375C618.381 218.152 615.902 205.493 615.902 191.399C615.902 177.392 618.338 164.777 623.21 153.554C628.169 142.331 635.259 133.457 644.481 126.932C653.703 120.407 664.752 117.145 677.628 117.145C690.852 117.145 701.988 120.364 711.036 126.802C720.084 133.24 726.914 142.07 731.525 153.293C736.223 164.429 738.572 177.131 738.572 191.399C738.572 205.406 736.266 218.065 731.655 229.375C727.044 240.598 720.258 249.515 711.297 256.127C702.336 262.653 691.374 265.915 678.411 265.915ZM680.369 248.036C690.374 248.036 698.639 245.6 705.164 240.728C711.689 235.856 716.561 229.157 719.78 220.631C722.999 212.018 724.608 202.274 724.608 191.399C724.608 180.35 722.999 170.606 719.78 162.167C716.561 153.641 711.689 146.986 705.164 142.201C698.726 137.416 690.591 135.023 680.76 135.023C670.668 135.023 662.316 137.503 655.704 142.462C649.092 147.421 644.177 154.163 640.958 162.689C637.826 171.215 636.26 180.785 636.26 191.399C636.26 202.1 637.869 211.757 641.088 220.37C644.394 228.896 649.31 235.639 655.835 240.598C662.36 245.557 670.538 248.036 680.369 248.036ZM724.608 262V155.903H722.52V74.08H741.834V262H724.608ZM838.084 265.915C824.338 265.915 812.419 262.87 802.327 256.78C792.322 250.69 784.536 242.12 778.968 231.071C773.4 220.022 770.616 207.059 770.616 192.182C770.616 176.783 773.356 163.472 778.837 152.249C784.318 141.026 792.018 132.37 801.936 126.28C811.941 120.19 823.729 117.145 837.301 117.145C851.221 117.145 863.097 120.364 872.928 126.802C882.759 133.153 890.197 142.288 895.243 154.207C900.289 166.126 902.595 180.35 902.16 196.88H882.585V190.095C882.237 171.824 878.278 158.035 870.709 148.726C863.227 139.417 852.265 134.762 837.823 134.762C822.685 134.762 811.071 139.678 802.98 149.509C794.976 159.34 790.974 173.347 790.974 191.53C790.974 209.278 794.976 223.067 802.98 232.898C811.071 242.642 822.511 247.514 837.301 247.514C847.393 247.514 856.18 245.209 863.662 240.598C871.231 235.9 877.191 229.157 881.541 220.37L899.419 227.287C893.851 239.554 885.63 249.08 874.755 255.866C863.967 262.566 851.743 265.915 838.084 265.915ZM784.188 196.88V180.829H891.85V196.88H784.188ZM931.121 262V74.08H950.304V158.774H1054.18V74.08H1073.24V262H1054.18V177.175H950.304V262H931.121ZM1150.12 265.915C1139.5 265.915 1130.59 264.001 1123.37 260.173C1116.23 256.345 1110.88 251.255 1107.31 244.904C1103.75 238.553 1101.96 231.637 1101.96 224.155C1101.96 216.499 1103.49 209.974 1106.53 204.58C1109.66 199.099 1113.88 194.618 1119.19 191.138C1124.58 187.658 1130.8 185.005 1137.85 183.178C1144.98 181.438 1152.86 179.915 1161.47 178.61C1170.17 177.218 1178.65 176.044 1186.92 175.087C1195.27 174.043 1202.58 173.042 1208.84 172.085L1202.06 176.261C1202.32 162.341 1199.62 152.032 1193.97 145.333C1188.31 138.634 1178.48 135.284 1164.47 135.284C1154.82 135.284 1146.64 137.459 1139.94 141.809C1133.33 146.159 1128.67 153.032 1125.98 162.428L1107.31 156.947C1110.53 144.332 1117.01 134.545 1126.76 127.585C1136.5 120.625 1149.16 117.145 1164.73 117.145C1177.61 117.145 1188.53 119.581 1197.49 124.453C1206.54 129.238 1212.93 136.198 1216.67 145.333C1218.41 149.422 1219.54 153.989 1220.07 159.035C1220.59 164.081 1220.85 169.214 1220.85 174.434V262H1203.75V226.634L1208.71 228.722C1203.93 240.815 1196.49 250.037 1186.4 256.388C1176.3 262.74 1164.21 265.915 1150.12 265.915ZM1152.34 249.341C1161.3 249.341 1169.13 247.732 1175.83 244.513C1182.53 241.294 1187.92 236.9 1192.01 231.332C1196.1 225.677 1198.75 219.326 1199.97 212.279C1201.01 207.755 1201.58 202.796 1201.67 197.402C1201.75 191.921 1201.8 187.832 1201.8 185.135L1209.1 188.92C1202.58 189.79 1195.49 190.66 1187.83 191.53C1180.26 192.4 1172.78 193.4 1165.39 194.531C1158.08 195.662 1151.47 197.011 1145.55 198.577C1141.55 199.708 1137.68 201.317 1133.94 203.405C1130.19 205.406 1127.11 208.103 1124.67 211.496C1122.32 214.889 1121.15 219.109 1121.15 224.155C1121.15 228.244 1122.15 232.202 1124.15 236.03C1126.24 239.858 1129.54 243.034 1134.07 245.557C1138.68 248.08 1144.77 249.341 1152.34 249.341ZM1318.11 265.915C1305.15 265.915 1294.19 262.653 1285.23 256.127C1276.27 249.515 1269.48 240.598 1264.87 229.375C1260.26 218.065 1257.95 205.406 1257.95 191.399C1257.95 177.131 1260.26 164.429 1264.87 153.293C1269.57 142.07 1276.44 133.24 1285.49 126.802C1294.54 120.364 1305.67 117.145 1318.9 117.145C1331.77 117.145 1342.82 120.407 1352.04 126.932C1361.27 133.457 1368.31 142.331 1373.19 153.554C1378.14 164.777 1380.62 177.392 1380.62 191.399C1380.62 205.493 1378.14 218.152 1373.19 229.375C1368.23 240.598 1361.09 249.515 1351.78 256.127C1342.47 262.653 1331.25 265.915 1318.11 265.915ZM1254.69 262V74.08H1274.01V155.903H1271.92V262H1254.69ZM1316.16 248.036C1325.99 248.036 1334.17 245.557 1340.69 240.598C1347.22 235.639 1352.09 228.896 1355.31 220.37C1358.61 211.757 1360.27 202.1 1360.27 191.399C1360.27 180.785 1358.66 171.215 1355.44 162.689C1352.22 154.163 1347.3 147.421 1340.69 142.462C1334.17 137.503 1325.86 135.023 1315.77 135.023C1305.93 135.023 1297.76 137.416 1291.23 142.201C1284.79 146.986 1279.96 153.641 1276.75 162.167C1273.53 170.606 1271.92 180.35 1271.92 191.399C1271.92 202.274 1273.53 212.018 1276.75 220.631C1279.96 229.157 1284.84 235.856 1291.36 240.728C1297.89 245.6 1306.15 248.036 1316.16 248.036ZM1411.89 94.3075V72.775H1431.07V94.3075H1411.89ZM1411.89 262V121.06H1431.07V262H1411.89ZM1546.93 262C1539.01 263.653 1531.18 264.306 1523.44 263.958C1515.79 263.61 1508.91 261.956 1502.82 258.998C1496.82 256.04 1492.25 251.429 1489.12 245.165C1486.6 239.945 1485.21 234.682 1484.94 229.375C1484.77 223.981 1484.68 217.847 1484.68 210.974V81.91H1503.74V210.191C1503.74 216.107 1503.78 221.066 1503.87 225.068C1504.04 228.983 1504.95 232.463 1506.61 235.508C1509.74 241.337 1514.7 244.817 1521.48 245.948C1528.36 247.079 1536.84 246.818 1546.93 245.165V262ZM1454.54 137.503V121.06H1546.93V137.503H1454.54Z" fill="black"/>
</svg>
